# Blender v2.79 (sub 0) OBJ File: 'O0 pane.blend'
# www.blender.org
mtllib PaneHandles.mtl
o Cube
v 0.200000 -1.000000 -6.000000
v 0.200000 -1.000000 6.000000
v -0.200000 -1.000000 5.999999
v -0.200000 -1.000000 -6.000002
v 0.200000 1.000000 -5.999997
v 0.200000 1.000000 6.000004
v -0.200000 1.000000 5.999998
v -0.200000 1.000000 -6.000000
v 0.000000 -21.080000 4.900000
v 0.000000 -0.920000 4.900000
v 0.019509 -21.080000 4.901921
v 0.019509 -0.920000 4.901921
v 0.038268 -21.080000 4.907612
v 0.038268 -0.920000 4.907612
v 0.055557 -21.080000 4.916853
v 0.055557 -0.920000 4.916853
v 0.070711 -21.080000 4.929289
v 0.070711 -0.920000 4.929289
v 0.083147 -21.080000 4.944443
v 0.083147 -0.920000 4.944443
v 0.092388 -21.080000 4.961731
v 0.092388 -0.920000 4.961731
v 0.098079 -21.080000 4.980491
v 0.098079 -0.920000 4.980491
v 0.100000 -21.080000 5.000000
v 0.100000 -0.920000 5.000000
v 0.098079 -21.080000 5.019509
v 0.098079 -0.920000 5.019509
v 0.092388 -21.080000 5.038268
v 0.092388 -0.920000 5.038268
v 0.083147 -21.080000 5.055557
v 0.083147 -0.920000 5.055557
v 0.070711 -21.080000 5.070711
v 0.070711 -0.920000 5.070711
v 0.055557 -21.080000 5.083147
v 0.055557 -0.920000 5.083147
v 0.038268 -21.080000 5.092388
v 0.038268 -0.920000 5.092388
v 0.019509 -21.080000 5.098079
v 0.019509 -0.920000 5.098079
v -0.000000 -21.080000 5.100000
v -0.000000 -0.920000 5.100000
v -0.019509 -21.080000 5.098079
v -0.019509 -0.920000 5.098079
v -0.038268 -21.080000 5.092388
v -0.038268 -0.920000 5.092388
v -0.055557 -21.080000 5.083147
v -0.055557 -0.920000 5.083147
v -0.070711 -21.080000 5.070711
v -0.070711 -0.920000 5.070711
v -0.083147 -21.080000 5.055557
v -0.083147 -0.920000 5.055557
v -0.092388 -21.080000 5.038268
v -0.092388 -0.920000 5.038268
v -0.098079 -21.080000 5.019509
v -0.098079 -0.920000 5.019509
v -0.100000 -21.080000 5.000000
v -0.100000 -0.920000 5.000000
v -0.098079 -21.080000 4.980491
v -0.098079 -0.920000 4.980491
v -0.092388 -21.080000 4.961731
v -0.092388 -0.920000 4.961731
v -0.083147 -21.080000 4.944443
v -0.083147 -0.920000 4.944443
v -0.070711 -21.080000 4.929289
v -0.070711 -0.920000 4.929289
v -0.055557 -21.080000 4.916853
v -0.055557 -0.920000 4.916853
v -0.038268 -21.080000 4.907612
v -0.038268 -0.920000 4.907612
v -0.019509 -21.080000 4.901921
v -0.019509 -0.920000 4.901921
v 0.000000 -21.080000 -5.100000
v 0.000000 -0.920000 -5.100000
v 0.019509 -21.080000 -5.098079
v 0.019509 -0.920000 -5.098079
v 0.038268 -21.080000 -5.092388
v 0.038268 -0.920000 -5.092388
v 0.055557 -21.080000 -5.083147
v 0.055557 -0.920000 -5.083147
v 0.070711 -21.080000 -5.070711
v 0.070711 -0.920000 -5.070711
v 0.083147 -21.080000 -5.055557
v 0.083147 -0.920000 -5.055557
v 0.092388 -21.080000 -5.038268
v 0.092388 -0.920000 -5.038268
v 0.098079 -21.080000 -5.019509
v 0.098079 -0.920000 -5.019509
v 0.100000 -21.080000 -5.000000
v 0.100000 -0.920000 -5.000000
v 0.098079 -21.080000 -4.980491
v 0.098079 -0.920000 -4.980491
v 0.092388 -21.080000 -4.961732
v 0.092388 -0.920000 -4.961732
v 0.083147 -21.080000 -4.944443
v 0.083147 -0.920000 -4.944443
v 0.070711 -21.080000 -4.929289
v 0.070711 -0.920000 -4.929289
v 0.055557 -21.080000 -4.916853
v 0.055557 -0.920000 -4.916853
v 0.038268 -21.080000 -4.907612
v 0.038268 -0.920000 -4.907612
v 0.019509 -21.080000 -4.901921
v 0.019509 -0.920000 -4.901921
v -0.000000 -21.080000 -4.900000
v -0.000000 -0.920000 -4.900000
v -0.019509 -21.080000 -4.901921
v -0.019509 -0.920000 -4.901921
v -0.038268 -21.080000 -4.907612
v -0.038268 -0.920000 -4.907612
v -0.055557 -21.080000 -4.916853
v -0.055557 -0.920000 -4.916853
v -0.070711 -21.080000 -4.929290
v -0.070711 -0.920000 -4.929290
v -0.083147 -21.080000 -4.944443
v -0.083147 -0.920000 -4.944443
v -0.092388 -21.080000 -4.961732
v -0.092388 -0.920000 -4.961732
v -0.098079 -21.080000 -4.980491
v -0.098079 -0.920000 -4.980491
v -0.100000 -21.080000 -5.000000
v -0.100000 -0.920000 -5.000000
v -0.098079 -21.080000 -5.019509
v -0.098079 -0.920000 -5.019509
v -0.092388 -21.080000 -5.038268
v -0.092388 -0.920000 -5.038268
v -0.083147 -21.080000 -5.055557
v -0.083147 -0.920000 -5.055557
v -0.070711 -21.080000 -5.070711
v -0.070711 -0.920000 -5.070711
v -0.055557 -21.080000 -5.083147
v -0.055557 -0.920000 -5.083147
v -0.038268 -21.080000 -5.092388
v -0.038268 -0.920000 -5.092388
v -0.019509 -21.080000 -5.098079
v -0.019509 -0.920000 -5.098079
vn 0.0000 -1.0000 0.0000
vn 0.0000 1.0000 0.0000
vn 1.0000 0.0000 0.0000
vn -0.0000 -0.0000 1.0000
vn -1.0000 -0.0000 -0.0000
vn 0.0000 0.0000 -1.0000
vn 0.0980 0.0000 -0.9952
vn 0.2903 0.0000 -0.9569
vn 0.4714 0.0000 -0.8819
vn 0.6344 0.0000 -0.7730
vn 0.7730 0.0000 -0.6344
vn 0.8819 0.0000 -0.4714
vn 0.9569 0.0000 -0.2903
vn 0.9952 0.0000 -0.0980
vn 0.9952 0.0000 0.0980
vn 0.9569 0.0000 0.2903
vn 0.8819 0.0000 0.4714
vn 0.7730 0.0000 0.6344
vn 0.6344 0.0000 0.7730
vn 0.4714 0.0000 0.8819
vn 0.2903 0.0000 0.9569
vn 0.0980 0.0000 0.9952
vn -0.0980 0.0000 0.9952
vn -0.2903 0.0000 0.9569
vn -0.4714 0.0000 0.8819
vn -0.6344 0.0000 0.7730
vn -0.7730 0.0000 0.6344
vn -0.8819 0.0000 0.4714
vn -0.9569 0.0000 0.2903
vn -0.9952 0.0000 0.0980
vn -0.9952 0.0000 -0.0980
vn -0.9569 0.0000 -0.2903
vn -0.8819 0.0000 -0.4714
vn -0.7730 0.0000 -0.6344
vn -0.6344 0.0000 -0.7730
vn -0.4714 0.0000 -0.8819
vn -0.2903 0.0000 -0.9569
vn -0.0980 0.0000 -0.9952
usemtl (null)
s off
f 1//1 2//1 3//1 4//1
f 5//2 8//2 7//2 6//2
f 1//3 5//3 6//3 2//3
f 2//4 6//4 7//4 3//4
f 3//5 7//5 8//5 4//5
f 5//6 1//6 4//6 8//6
f 9//7 10//7 12//7 11//7
f 11//8 12//8 14//8 13//8
f 13//9 14//9 16//9 15//9
f 15//10 16//10 18//10 17//10
f 17//11 18//11 20//11 19//11
f 19//12 20//12 22//12 21//12
f 21//13 22//13 24//13 23//13
f 23//14 24//14 26//14 25//14
f 25//15 26//15 28//15 27//15
f 27//16 28//16 30//16 29//16
f 29//17 30//17 32//17 31//17
f 31//18 32//18 34//18 33//18
f 33//19 34//19 36//19 35//19
f 35//20 36//20 38//20 37//20
f 37//21 38//21 40//21 39//21
f 39//22 40//22 42//22 41//22
f 41//23 42//23 44//23 43//23
f 43//24 44//24 46//24 45//24
f 45//25 46//25 48//25 47//25
f 47//26 48//26 50//26 49//26
f 49//27 50//27 52//27 51//27
f 51//28 52//28 54//28 53//28
f 53//29 54//29 56//29 55//29
f 55//30 56//30 58//30 57//30
f 57//31 58//31 60//31 59//31
f 59//32 60//32 62//32 61//32
f 61//33 62//33 64//33 63//33
f 63//34 64//34 66//34 65//34
f 65//35 66//35 68//35 67//35
f 67//36 68//36 70//36 69//36
f 12//2 10//2 72//2 70//2 68//2 66//2 64//2 62//2 60//2 58//2 56//2 54//2 52//2 50//2 48//2 46//2 44//2 42//2 40//2 38//2 36//2 34//2 32//2 30//2 28//2 26//2 24//2 22//2 20//2 18//2 16//2 14//2
f 69//37 70//37 72//37 71//37
f 71//38 72//38 10//38 9//38
f 9//1 11//1 13//1 15//1 17//1 19//1 21//1 23//1 25//1 27//1 29//1 31//1 33//1 35//1 37//1 39//1 41//1 43//1 45//1 47//1 49//1 51//1 53//1 55//1 57//1 59//1 61//1 63//1 65//1 67//1 69//1 71//1
f 73//7 74//7 76//7 75//7
f 75//8 76//8 78//8 77//8
f 77//9 78//9 80//9 79//9
f 79//10 80//10 82//10 81//10
f 81//11 82//11 84//11 83//11
f 83//12 84//12 86//12 85//12
f 85//13 86//13 88//13 87//13
f 87//14 88//14 90//14 89//14
f 89//15 90//15 92//15 91//15
f 91//16 92//16 94//16 93//16
f 93//17 94//17 96//17 95//17
f 95//18 96//18 98//18 97//18
f 97//19 98//19 100//19 99//19
f 99//20 100//20 102//20 101//20
f 101//21 102//21 104//21 103//21
f 103//22 104//22 106//22 105//22
f 105//23 106//23 108//23 107//23
f 107//24 108//24 110//24 109//24
f 109//25 110//25 112//25 111//25
f 111//26 112//26 114//26 113//26
f 113//27 114//27 116//27 115//27
f 115//28 116//28 118//28 117//28
f 117//29 118//29 120//29 119//29
f 119//30 120//30 122//30 121//30
f 121//31 122//31 124//31 123//31
f 123//32 124//32 126//32 125//32
f 125//33 126//33 128//33 127//33
f 127//34 128//34 130//34 129//34
f 129//35 130//35 132//35 131//35
f 131//36 132//36 134//36 133//36
f 76//2 74//2 136//2 134//2 132//2 130//2 128//2 126//2 124//2 122//2 120//2 118//2 116//2 114//2 112//2 110//2 108//2 106//2 104//2 102//2 100//2 98//2 96//2 94//2 92//2 90//2 88//2 86//2 84//2 82//2 80//2 78//2
f 133//37 134//37 136//37 135//37
f 135//38 136//38 74//38 73//38
f 73//1 75//1 77//1 79//1 81//1 83//1 85//1 87//1 89//1 91//1 93//1 95//1 97//1 99//1 101//1 103//1 105//1 107//1 109//1 111//1 113//1 115//1 117//1 119//1 121//1 123//1 125//1 127//1 129//1 131//1 133//1 135//1
